<?xml version="1.0" encoding="UTF-8"?>
<svg width="1200" height="1200" viewBox="0 0 1200 1200" xmlns="http://www.w3.org/2000/svg" preserveAspectRatio="xMidYMid slice">
  <defs>
    <linearGradient id="g1" x1="0" x2="1" y1="0" y2="1">
      <stop offset="0" stop-color="#ecfdf5" stop-opacity="1"/>
      <stop offset="0.5" stop-color="#a7f3d0" stop-opacity="1"/>
      <stop offset="1" stop-color="#0f172a" stop-opacity="1"/>
    </linearGradient>
    <filter id="grain"><feTurbulence baseFrequency="0.8" numOctaves="2" stitchTiles="stitch" result="t"/><feColorMatrix type="saturate" values="0"/></filter>
    <filter id="soft" x="-50%" y="-50%" width="200%" height="200%"><feGaussianBlur stdDeviation="18" result="b"/></filter>
  </defs>

  <rect width="1200" height="1200" rx="120" fill="url(#g1)" />

  <g transform="translate(100,120)">
    <g filter="url(#soft)">
      <ellipse cx="500" cy="420" rx="440" ry="260" fill="rgba(0,0,0,0.12)" />
    </g>

    <g>
      <circle cx="500" cy="360" r="260" fill="rgba(255,255,255,0.06)" />
      <circle cx="500" cy="360" r="220" fill="url(#g1)" />

      <g transform="translate(380,260)">
        <path d="M120 0 C80 90 0 120 0 200 C0 340 210 360 320 360 C430 360 560 320 560 200 C560 130 520 90 480 60 C420 20 320 0 320 0 Z" fill="#081826" opacity="0.08"/>
      </g>

      <g transform="translate(420,320)">
        <text x="0" y="0" font-family="Cinzel, serif" font-size="92" fill="#fff" opacity="0.95">TQH</text>
      </g>
    </g>

    <g>
      <circle cx="500" cy="360" r="340" fill="none" stroke="rgba(255,255,255,0.06)" stroke-width="6" />
    </g>
  </g>

  <g>
    <circle cx="980" cy="160" r="60" fill="rgba(255,255,255,0.04)" />
    <circle cx="1040" cy="220" r="40" fill="rgba(255,255,255,0.03)" />
  </g>
</svg>
